<svg height='200' width='200'  fill="#EC5D57" xmlns:x="http://ns.adobe.com/Extensibility/1.0/" xmlns:i="http://ns.adobe.com/AdobeIllustrator/10.0/" xmlns:graph="http://ns.adobe.com/Graphs/1.0/" xmlns="http://www.w3.org/2000/svg" xmlns:xlink="http://www.w3.org/1999/xlink" version="1.1" x="0px" y="0px" viewBox="0 0 64 64" enable-background="new 0 0 64 64" xml:space="preserve"><metadata><sfw xmlns="http://ns.adobe.com/SaveForWeb/1.0/"><slices></slices><sliceSourceBounds y="-8160" x="-8165" width="16389" height="16384" bottomLeftOrigin="true"></sliceSourceBounds></sfw></metadata><g><path d="M56,22c0-1.104-0.896-2-2-2h-6.163C47.94,20.661,48,21.329,48,22c0,7.168-5.832,13-13,13c-0.553,0-1-0.447-1-1s0.447-1,1-1   c6.065,0,11-4.935,11-11c0-1.92-0.513-3.822-1.483-5.499c-0.092-0.158-0.119-0.329-0.119-0.499c-0.005,0-0.01-0.002-0.016-0.002   h-9.993c-2.127-3.684-6.073-6-10.389-6c-5.363,0-9.914,3.537-11.446,8.4l-3.525-2.115c-0.946-0.569-2.176-0.261-2.744,0.686   c-0.568,0.947-0.261,2.175,0.686,2.744L9.113,21l-2.142,1.285c-0.947,0.568-1.254,1.797-0.686,2.744C6.66,25.654,7.322,26,8.002,26   c0.35,0,0.705-0.092,1.027-0.286l3.057-1.834c0.902,10.596,9.342,19.07,19.924,20.024C32.008,43.938,32,43.968,32,44v6h-2   c-1.104,0-2,0.896-2,2s0.896,2,2,2h8c1.104,0,2-0.896,2-2s-0.896-2-2-2h-2v-6c0-0.032-0.008-0.062-0.01-0.095   C47.191,42.896,56,33.46,56,22z M22,22c-1.104,0-2-0.896-2-2s0.896-2,2-2s2,0.896,2,2S23.104,22,22,22z"></path></g></svg>